<svg width="256" height="256" viewBox="0 0 256 256" fill="none" xmlns="http://www.w3.org/2000/svg">
  <defs>
    <linearGradient id="bg" x1="32" y1="28" x2="224" y2="228" gradientUnits="userSpaceOnUse">
      <stop stop-color="#1D4ED8"/>
      <stop offset="1" stop-color="#0F766E"/>
    </linearGradient>
    <linearGradient id="cloud" x1="72" y1="76" x2="176" y2="164" gradientUnits="userSpaceOnUse">
      <stop stop-color="#FFFFFF"/>
      <stop offset="1" stop-color="#D9F4FF"/>
    </linearGradient>
  </defs>

  <rect x="16" y="16" width="224" height="224" rx="56" fill="url(#bg)"/>
  <rect x="28" y="28" width="200" height="200" rx="44" stroke="#FFFFFF" stroke-opacity="0.18" stroke-width="4"/>

  <path d="M92 162C72.1178 162 56 146.106 56 126.5C56 109.996 67.4097 96.1509 82.7867 92.2912C87.4596 73.3568 104.549 60 124.5 60C147.557 60 166.66 77.5733 169.081 99.9728C185.124 101.824 197.5 115.271 197.5 131.5C197.5 148.985 183.359 163 165.875 163H92V162Z" fill="url(#cloud)"/>

  <path d="M88 150H168C171.314 150 174 152.686 174 156V178C174 184.627 153.405 190 128 190C102.595 190 82 184.627 82 178V156C82 152.686 84.6863 150 88 150Z" fill="#0B1324" fill-opacity="0.18"/>
  <path d="M86 146H170C173.314 146 176 148.686 176 152V172C176 178.627 154.51 184 128 184C101.49 184 80 178.627 80 172V152C80 148.686 82.6863 146 86 146Z" fill="#F8FDFF"/>
  <ellipse cx="128" cy="146" rx="48" ry="14" fill="#C7EEFF"/>
  <ellipse cx="128" cy="146" rx="34" ry="9" fill="#78D4F6"/>
  <path d="M80 171C80 177.627 101.49 183 128 183C154.51 183 176 177.627 176 171" stroke="#B1E7FF" stroke-width="4" stroke-linecap="round"/>

  <circle cx="182" cy="74" r="18" fill="#F8FDFF" fill-opacity="0.16"/>
  <path d="M182 65V83" stroke="#F8FDFF" stroke-width="6" stroke-linecap="round"/>
  <path d="M173 74H191" stroke="#F8FDFF" stroke-width="6" stroke-linecap="round"/>
</svg>
